<svg width="35" height="32" viewBox="0 0 36 32" fill="none" xmlns="http://www.w3.org/2000/svg">
<path d="M32.9945 16.5062C33.2919 16.8969 33.3636 17.3937 33.1859 17.8344C32.5297 19.4687 30.8514 20.5343 28.9647 20.5343C28.8929 20.5343 28.8212 20.5312 28.746 20.5281C27.5258 20.475 26.4423 19.9781 25.6698 19.2062V21.7687C25.6698 22.4 26.1893 22.9312 26.8558 22.975C27.43 23.0156 27.953 22.7125 28.1581 22.2187C28.4007 21.6312 28.9921 21.2531 29.6654 21.2531C30.1918 21.2531 30.684 21.4875 30.9881 21.8843C31.2855 22.275 31.3573 22.7687 31.1796 23.2125C30.5267 24.8468 28.8451 25.9125 26.9584 25.9125C26.8866 25.9125 26.8148 25.9093 26.7396 25.9093C24.3402 25.8062 22.4603 23.9781 22.4603 21.75V16.1531C22.4603 15.9469 22.2757 15.7781 22.0502 15.7781C21.8246 15.7781 21.64 15.9469 21.64 16.1531V28.0937C21.64 28.9031 20.9188 29.5625 20.0336 29.5625C19.1483 29.5625 18.4271 28.9062 18.4271 28.0937V16.1531C18.4271 15.9469 18.2425 15.7781 18.017 15.7781C17.7914 15.7781 17.6068 15.9469 17.6068 16.1531V28.0937C17.6068 28.9031 16.8856 29.5625 16.0004 29.5625C15.1151 29.5625 14.3939 28.9062 14.3939 28.0937V16.1531C14.3939 15.9469 14.2093 15.7781 13.9838 15.7781C13.7582 15.7781 13.5736 15.9469 13.5736 16.1531V21.7593C13.5736 23.9875 11.6937 25.8125 9.2943 25.9187C9.22253 25.9219 9.15075 25.9219 9.07556 25.9219C7.18884 25.9219 5.5072 24.8562 4.85436 23.2218C4.67663 22.7781 4.74841 22.2812 5.04577 21.8937C5.34655 21.5 5.84216 21.2625 6.36511 21.2625C7.03845 21.2625 7.62975 21.6406 7.87243 22.2281C8.07751 22.7187 8.60046 23.025 9.17468 22.9844C9.83776 22.9406 10.3573 22.4094 10.3573 21.7781V19.2156C9.58483 19.9844 8.50134 20.4844 7.28112 20.5375C7.20934 20.5406 7.13415 20.5437 7.06237 20.5437C5.17565 20.5437 3.49401 19.4781 2.84118 17.8437C2.66345 17.4 2.73522 16.9031 3.03259 16.5156C3.33337 16.1219 3.82897 15.8875 4.35192 15.8875C5.02526 15.8875 5.61657 16.2656 5.85925 16.8531C6.06433 17.3437 6.58727 17.6469 7.16149 17.6094C7.82458 17.5625 8.34753 17.0344 8.34753 16.4031L8.35095 12.3344C8.41931 11.0281 9.16442 9.84685 10.3641 9.12498C10.5487 5.39998 13.9086 2.4281 18.0135 2.4281C22.1185 2.4281 25.4784 5.39998 25.6595 9.11248C26.8592 9.83748 27.6044 11.0156 27.6727 12.325C27.6761 12.3594 27.6761 16.3906 27.6761 16.3906C27.6761 17.0219 28.1957 17.55 28.8622 17.5968C29.4364 17.6375 29.9593 17.3312 30.1644 16.8406C30.4071 16.2531 30.9984 15.875 31.6717 15.875C32.1981 15.8781 32.6937 16.1125 32.9945 16.5062Z" fill="#663333"/>
<path d="M32.0104 17.1375C32.0548 17.1938 32.1164 17.3125 32.0583 17.4594C31.8053 18.0906 31.3405 18.6062 30.756 18.9531C30.5885 18.8313 30.3561 18.7969 30.1476 18.8781C29.9391 18.9625 29.8092 19.1437 29.799 19.3375C29.4811 19.4125 29.1461 19.4469 28.8043 19.4312C28.6027 19.4219 28.4044 19.3969 28.2165 19.3563C28.1994 19.1625 28.0661 18.9844 27.8542 18.9031C27.6422 18.8219 27.4132 18.8625 27.2492 18.9906C26.7946 18.7344 26.4152 18.3781 26.1418 17.9531C26.2819 17.8062 26.3297 17.5938 26.2477 17.4C26.1623 17.2062 25.9709 17.0813 25.7555 17.0625C25.7008 16.8406 25.6701 16.6094 25.6701 16.3719V15.8719C25.882 15.7906 26.0324 15.6 26.0324 15.375C26.0324 15.15 25.882 14.9594 25.6701 14.8781V13.6375C25.882 13.5562 26.0324 13.3656 26.0324 13.1406C26.0324 12.9156 25.882 12.725 25.6701 12.6438V12.4406C25.6701 12.1375 25.4001 11.8906 25.0685 11.8906C24.737 11.8906 24.4669 12.1375 24.4669 12.4406V21.7687C24.4669 22.9719 25.4752 23.9812 26.7638 24.0719C27.8747 24.15 28.8864 23.5594 29.2794 22.6094C29.3444 22.4531 29.4948 22.3531 29.6657 22.3531C29.8571 22.3531 29.963 22.4656 30.0006 22.5125C30.0451 22.5688 30.1066 22.6875 30.0485 22.8344C29.7956 23.4688 29.3307 23.9844 28.7462 24.3312C28.5788 24.2094 28.3463 24.1719 28.1378 24.2594C27.9293 24.3438 27.7995 24.525 27.7858 24.7188C27.4679 24.7938 27.133 24.8281 26.7912 24.8125C26.5895 24.8031 26.3913 24.7781 26.2033 24.7375C26.1862 24.5437 26.0529 24.3656 25.8444 24.2844C25.6325 24.2062 25.4001 24.2438 25.2394 24.3719C24.7848 24.1156 24.4054 23.7594 24.132 23.3344C24.2721 23.1875 24.32 22.975 24.2379 22.7812C24.1525 22.5875 23.9611 22.4625 23.7458 22.4438C23.6911 22.2219 23.6603 21.9906 23.6603 21.7531V21.2531C23.8722 21.1719 24.0226 20.9813 24.0226 20.7563C24.0226 20.5312 23.8722 20.3406 23.6603 20.2594V19.0187C23.8722 18.9375 24.0226 18.7469 24.0226 18.5219C24.0226 18.2969 23.8722 18.1062 23.6603 18.025V16.1469C23.6603 15.3344 22.9357 14.6719 22.047 14.6719C21.1584 14.6719 20.4337 15.3344 20.4337 16.1469V17.8844C20.2218 17.9656 20.0714 18.1562 20.0714 18.3813C20.0714 18.6063 20.2218 18.7969 20.4337 18.8781V20.1187C20.2218 20.2 20.0714 20.3906 20.0714 20.6156C20.0714 20.8406 20.2218 21.0312 20.4337 21.1125V22.35C20.2218 22.4312 20.0714 22.6219 20.0714 22.8469C20.0714 23.0719 20.2218 23.2625 20.4337 23.3438V24.5906C20.2218 24.6719 20.0714 24.8625 20.0714 25.0875C20.0714 25.3125 20.2218 25.5031 20.4337 25.5844V26.825C20.2218 26.9062 20.0714 27.0969 20.0714 27.3219C20.0714 27.5469 20.2218 27.7375 20.4337 27.8188V28.0875C20.4337 28.2906 20.2526 28.4562 20.0304 28.4562C19.8083 28.4562 19.6271 28.2906 19.6271 28.0875V16.1531C19.6271 15.3406 18.9025 14.6781 18.0138 14.6781C17.1252 14.6781 16.4005 15.3406 16.4005 16.1531V28.0938C16.4005 28.2969 16.2194 28.4625 15.9972 28.4625C15.7751 28.4625 15.5939 28.2969 15.5939 28.0938V27.825C15.8058 27.7438 15.9562 27.5531 15.9562 27.3281C15.9562 27.1031 15.8058 26.9125 15.5939 26.8312V25.5906C15.8058 25.5094 15.9562 25.3188 15.9562 25.0938C15.9562 24.8687 15.8058 24.6781 15.5939 24.5969V23.3563V23.3594C15.8058 23.2781 15.9562 23.0875 15.9562 22.8625C15.9562 22.6375 15.8058 22.4469 15.5939 22.3656V21.1219C15.8058 21.0406 15.9562 20.85 15.9562 20.625C15.9562 20.4 15.8058 20.2094 15.5939 20.1281V18.8875C15.8058 18.8063 15.9562 18.6156 15.9562 18.3906C15.9562 18.1656 15.8058 17.975 15.5939 17.8937V16.1562C15.5939 15.3438 14.8693 14.6812 13.9806 14.6812C13.0919 14.6812 12.3673 15.3438 12.3673 16.1562V18.0312C12.1554 18.1125 12.005 18.3031 12.005 18.5281C12.005 18.7531 12.1554 18.9437 12.3673 19.025V20.2656C12.1554 20.3469 12.005 20.5375 12.005 20.7625C12.005 20.9875 12.1554 21.1781 12.3673 21.2594V21.7594C12.3673 21.9969 12.3366 22.2281 12.2819 22.45C12.07 22.4688 11.8751 22.5938 11.7897 22.7875C11.7043 22.9813 11.7555 23.1938 11.8957 23.3406C11.6222 23.7625 11.2428 24.1187 10.7882 24.3781C10.6242 24.2531 10.3918 24.2125 10.1833 24.2906C9.97134 24.3719 9.84146 24.55 9.82095 24.7437C9.62955 24.7844 9.43472 24.8094 9.23306 24.8188C8.89126 24.8344 8.5563 24.8 8.23843 24.725C8.22476 24.5312 8.09829 24.35 7.88638 24.2656C7.67788 24.1812 7.44546 24.2156 7.27798 24.3406C6.69351 23.9938 6.23208 23.4781 5.97574 22.8438C5.91763 22.6969 5.98257 22.5813 6.02359 22.5219C6.06119 22.475 6.16714 22.3625 6.36197 22.3625C6.52945 22.3625 6.67984 22.4625 6.74478 22.6187C7.11734 23.5125 8.03335 24.0875 9.069 24.0875C9.13394 24.0875 9.19888 24.0844 9.2604 24.0812C10.549 23.9906 11.5573 22.9813 11.5573 21.7781V12.4438C11.5573 12.1406 11.2873 11.8938 10.9557 11.8938C10.6242 11.8938 10.3542 12.1406 10.3542 12.4438V12.6469C10.1422 12.7281 9.99185 12.9187 9.99185 13.1438C9.99185 13.3688 10.1422 13.5594 10.3542 13.6406V14.8813C10.1422 14.9625 9.99185 15.1531 9.99185 15.3781C9.99185 15.6031 10.1422 15.7937 10.3542 15.875V16.375C10.3542 16.6125 10.3234 16.8437 10.2687 17.0656C10.0568 17.0844 9.86197 17.2094 9.77652 17.4031C9.69107 17.5969 9.74234 17.8094 9.88247 17.9562C9.60904 18.3781 9.22964 18.7344 8.77505 18.9937C8.61099 18.8687 8.37857 18.8281 8.17007 18.9062C7.95816 18.9875 7.82827 19.1656 7.80777 19.3594C7.61636 19.4 7.42154 19.425 7.21988 19.4344C6.87808 19.45 6.54312 19.4156 6.22525 19.3406C6.21158 19.1469 6.08511 18.9656 5.87661 18.8813C5.66812 18.7969 5.4357 18.8312 5.26822 18.9562C4.68374 18.6094 4.22232 18.0938 3.96597 17.4625C3.90786 17.3156 3.97281 17.1969 4.01382 17.1406C4.05142 17.0938 4.15738 16.9813 4.3522 16.9813C4.51968 16.9813 4.67007 17.0812 4.73501 17.2375C5.10757 18.1344 6.027 18.7062 7.05923 18.7062C7.12417 18.7062 7.18911 18.7031 7.25406 18.7C8.54263 18.6094 9.55093 17.6 9.55093 16.3969C9.55093 16.3969 9.55093 12.4094 9.55435 12.3844C9.60904 11.35 10.2414 10.425 11.2497 9.9125C11.2633 9.90625 11.2702 9.9 11.277 9.89688C11.4445 9.8 11.5573 9.62812 11.5573 9.43125C11.5573 6.17812 14.4523 3.53125 18.0104 3.53125C21.5685 3.53125 24.4635 6.17812 24.4635 9.43125C24.4635 9.62812 24.5763 9.8 24.7472 9.89688C24.7541 9.9 24.7609 9.90625 24.7746 9.9125C25.7829 10.425 26.4186 11.35 26.4733 12.3875L26.4767 16.3969C26.4767 17.6 27.485 18.6094 28.7736 18.7C29.8844 18.775 30.8961 18.1906 31.2892 17.2375C31.3542 17.0812 31.5045 16.9813 31.6754 16.9813C31.8668 16.9781 31.9728 17.0875 32.0104 17.1375Z" fill="#4EC8D8"/>
<path d="M22.5118 10.5312C22.8365 10.5312 23.0996 10.7719 23.0996 11.0687C23.0996 11.3656 22.8365 11.6062 22.5118 11.6062C22.187 11.6062 21.9239 11.3656 21.9239 11.0687C21.9239 10.7719 22.187 10.5312 22.5118 10.5312ZM18.0137 4.95935C18.3452 4.95935 18.6153 5.20623 18.6153 5.50935C18.6153 5.81248 18.3452 6.05935 18.0137 6.05935C16.7251 6.05935 15.5493 6.66248 14.8726 7.67185C14.7598 7.8406 14.5616 7.93435 14.3599 7.93435C14.2539 7.93435 14.1446 7.90935 14.0454 7.8531C13.7618 7.69373 13.6763 7.35623 13.8472 7.09685C14.7461 5.75623 16.3047 4.95935 18.0137 4.95935ZM13.5191 10.5312C13.8438 10.5312 14.107 10.7719 14.107 11.0687C14.107 11.3656 13.8438 11.6062 13.5191 11.6062C13.1944 11.6062 12.9312 11.3656 12.9312 11.0687C12.9278 10.7719 13.1944 10.5312 13.5191 10.5312Z" fill="#663333"/>
</svg>
